# Blender 3.4.1
# www.blender.org
o Cube
v 2.300000 2.400000 -4.000000
v 2.300000 0.000000 -4.000000
v 2.300000 2.400000 4.000000
v 2.300000 0.000000 4.000000
v -5.163632 2.400000 -4.000000
v -5.163632 0.000000 -4.000000
v -5.163632 2.400000 4.000000
v -5.163632 0.000000 4.000000
v -5.163632 0.000000 -3.799583
v 2.300000 2.400000 -2.796008
v -5.163632 2.400000 -3.799583
v 2.300000 0.000000 -2.796008
v -5.163632 0.000000 0.030431
v 2.300000 2.400000 0.030431
v -5.163632 2.400000 0.030431
v 2.300000 0.000000 0.030431
v -5.163632 0.000000 0.256275
v 2.300000 2.400000 0.256275
v -5.163632 2.400000 0.256275
v 2.300000 0.000000 0.256275
v -5.163632 0.000000 3.717364
v 2.300000 2.400000 2.603822
v -5.163632 2.400000 3.717364
v 2.300000 0.000000 2.603822
v 2.300000 0.817570 -4.000000
v -5.163632 0.817570 4.000000
v 2.300000 0.817570 4.000000
v -5.163632 0.817570 -4.000000
v 2.300000 0.817570 -2.796008
v -5.163632 0.817570 -3.799583
v -5.163632 0.817570 0.030431
v 2.300000 0.817570 0.030431
v -5.163632 0.817570 0.256275
v 2.300000 0.817570 0.256275
v -5.163632 0.817570 3.717364
v 2.300000 0.817570 2.603822
v -5.163632 1.990567 4.000000
v 2.300000 1.990567 -4.000000
v 2.300000 1.990567 4.000000
v -5.163632 1.990567 -4.000000
v 2.300000 1.990567 -2.796008
v -5.163632 1.990567 -3.799583
v -5.163632 1.990567 0.030431
v 2.300000 1.990567 0.030431
v -5.163632 1.990567 0.256275
v 2.300000 1.990567 0.256275
v -5.163632 1.990567 3.717364
v 2.300000 1.990567 2.603822
v 2.428010 1.990567 -2.796008
v 2.428010 0.817570 -2.796008
v 2.428010 1.990567 0.030431
v 2.428010 0.817570 0.030431
v 2.428010 1.990567 0.256275
v 2.428010 0.817570 0.256275
v 2.428010 1.990567 2.603822
v 2.428010 0.817570 2.603822
v -5.366838 2.400000 0.030431
v -5.366838 2.400000 -3.799583
v -5.366838 0.817570 -3.799583
v -5.366838 0.000000 -3.799583
v -5.366838 0.000000 0.030431
v -5.366838 0.817570 0.030431
v -5.366838 2.400000 3.717364
v -5.366838 2.400000 0.256275
v -5.366838 0.817570 0.256275
v -5.366838 0.000000 0.256275
v -5.366838 0.000000 3.717364
v -5.366838 0.817570 3.717364
v -5.366838 1.990567 -3.799583
v -5.366838 1.990567 0.030431
v -5.366838 1.990567 0.256275
v -5.366838 1.990567 3.717364
v -5.163632 0.000000 2.603822
v -5.366838 0.000000 2.603822
v -5.366838 2.400000 -2.796008
v -5.163632 2.400000 -2.796008
v -5.366838 0.000000 -2.796008
v -5.163632 0.000000 -2.796008
v -5.366838 2.400000 2.603822
v -5.163632 2.400000 2.603822
v 2.300000 0.817570 -3.799583
v 2.300000 1.990567 -3.799583
v 2.300000 0.000000 -3.799583
v 2.300000 2.400000 -3.799583
v 2.300000 0.000000 3.717364
v 2.300000 0.817570 3.717364
v 2.300000 2.400000 3.717364
v 2.300000 1.990567 3.717364
v -5.366838 0.000000 2.603822
v -5.366838 0.000000 0.256275
vn -1.0000 -0.0000 -0.0000
vn 1.0000 -0.0000 -0.0000
vn -0.0000 -0.0000 1.0000
vn -0.0000 1.0000 -0.0000
vn -0.0000 -1.0000 -0.0000
vn -0.0000 -0.0000 -1.0000
vt 0.625000 0.500000
vt 0.375000 0.500000
vt 0.625000 0.750000
vt 0.375000 0.750000
vt 0.625000 0.250000
vt 0.375000 0.250000
vt 0.625000 0.000000
vt 0.375000 0.000000
vt 0.125000 0.537625
vt 0.375000 0.212375
vt 0.625000 0.537625
vt 0.000000 0.000000
vt 0.875000 0.537625
vt 0.625000 0.212375
vt 0.375000 0.537625
vt 0.375000 0.124049
vt 0.125000 0.625951
vt 0.625000 0.625951
vt 0.000000 0.000000
vt 0.875000 0.625951
vt 0.625000 0.124049
vt 0.000000 0.000000
vt 0.375000 0.625951
vt 0.125000 0.633009
vt 0.375000 0.116991
vt 0.625000 0.633009
vt 0.875000 0.633009
vt 0.625000 0.116991
vt 0.375000 0.633009
vt 0.125000 0.706369
vt 0.375000 0.043631
vt 0.625000 0.706370
vt 0.875000 0.706370
vt 0.625000 0.043631
vt 0.375000 0.706370
vt 0.460164 0.500000
vt 0.460164 0.000000
vt 0.460164 0.750000
vt 0.460164 0.250000
vt 0.460164 0.537625
vt 0.460164 0.212375
vt 0.460164 0.124049
vt 0.460164 0.625951
vt 0.460164 0.116991
vt 0.460164 0.633009
vt 0.460164 0.043631
vt 0.460164 0.706370
vt 0.582351 0.000000
vt 0.582351 0.500000
vt 0.582351 0.750000
vt 0.582351 0.250000
vt 0.582351 0.537625
vt 0.582351 0.212375
vt 0.582351 0.124049
vt 0.582351 0.625951
vt 0.582351 0.116991
vt 0.582351 0.633009
vt 0.582351 0.043631
vt 0.582351 0.706370
vt 0.582351 0.537625
vt 0.460164 0.537625
vt 0.582351 0.625951
vt 0.460164 0.625951
vt 0.582351 0.633009
vt 0.460164 0.633009
vt 0.582351 0.706370
vt 0.460164 0.706370
vt 0.875000 0.625951
vt 0.625000 0.124049
vt 0.875000 0.537625
vt 0.625000 0.212375
vt 0.460164 0.212375
vt 0.375000 0.212375
vt 0.125000 0.537625
vt 0.125000 0.625951
vt 0.375000 0.124049
vt 0.460164 0.124049
vt 0.875000 0.706370
vt 0.625000 0.043631
vt 0.875000 0.633009
vt 0.625000 0.116991
vt 0.460164 0.116991
vt 0.125000 0.633009
vt 0.125000 0.706369
vt 0.375000 0.043631
vt 0.460164 0.043631
vt 0.582351 0.212375
vt 0.582351 0.124049
vt 0.582351 0.116991
vt 0.582351 0.043631
vt 0.125000 0.676161
vt 0.125000 0.675707
vt 0.875000 0.556502
vt 0.875000 0.556811
vt 0.000000 0.000000
vt 0.125000 0.556380
vt 0.125000 0.556728
vt 0.875000 0.666632
vt 0.875000 0.668840
vt 0.460164 0.510463
vt 0.582351 0.512450
vt 0.375000 0.507983
vt 0.625000 0.512635
vt 0.375000 0.739577
vt 0.460164 0.738336
vt 0.625000 0.734578
vt 0.582351 0.735885
vt 0.125000 0.675707
vt 0.375000 0.116991
s 0
f 83/102/1 12/15/1 29/40/1 81/100/1
f 42/53/2 40/51/2 5/5/2 11/14/2
f 81/100/1 29/40/1 41/52/1 82/101/1
f 48/59/1 88/107/1 87/106/1 22/32/1
f 40/51/3 38/49/3 1/1/3 5/5/3
f 38/49/1 82/101/1 84/103/1 1/1/1
f 77/96/4 61/75/4 13/17/4 78/97/4
f 45/56/3 71/89/3 65/82/3 33/44/3
f 7/7/5 23/34/5 87/106/5 3/3/5
f 45/56/2 43/54/2 15/21/2 19/28/2
f 41/52/1 44/55/1 14/18/1 10/11/1
f 79/98/5 64/80/5 19/27/5 80/99/5
f 75/93/5 58/70/5 11/13/5 76/94/5
f 15/20/5 57/68/5 75/93/5 76/94/5
f 44/55/1 46/57/1 18/26/1 14/18/1
f 13/17/4 17/24/4 20/29/4 16/23/4
f 14/18/5 18/26/5 19/27/5 15/20/5
f 37/48/2 47/58/2 23/34/2 7/7/2
f 46/57/1 48/59/1 22/32/1 18/26/1
f 17/24/4 73/91/4 24/35/4 20/29/4
f 82/101/1 41/52/1 10/11/1 84/103/1
f 20/29/1 24/35/1 36/47/1 34/45/1
f 8/8/2 21/31/2 35/46/2 26/37/2
f 16/23/1 20/29/1 34/45/1 32/43/1
f 17/24/4 66/83/4 74/92/4 73/91/4
f 12/15/1 16/23/1 32/43/1 29/40/1
f 17/25/2 13/16/2 31/42/2 33/44/2
f 43/54/6 70/88/6 57/69/6 15/21/6
f 2/2/1 83/102/1 81/100/1 25/36/1
f 6/6/3 2/2/3 25/36/3 28/39/3
f 24/35/1 85/104/1 86/105/1 36/47/1
f 9/10/2 6/6/2 28/39/2 30/41/2
f 32/43/4 52/63/4 50/61/4 29/40/4
f 26/37/2 35/46/2 47/58/2 37/48/2
f 32/43/1 34/45/1 46/57/1 44/55/1
f 31/42/6 62/77/6 70/88/6 43/54/6
f 44/55/6 51/62/6 52/63/6 32/43/6
f 33/44/2 31/42/2 43/54/2 45/56/2
f 11/14/3 58/71/3 69/87/3 42/53/3
f 25/36/1 81/100/1 82/101/1 38/49/1
f 28/39/3 25/36/3 38/49/3 40/51/3
f 36/47/1 86/105/1 88/107/1 48/59/1
f 30/41/2 28/39/2 40/51/2 42/53/2
f 36/47/4 56/67/4 54/65/4 34/45/4
f 41/52/5 49/60/5 51/62/5 44/55/5
f 29/40/3 50/61/3 49/60/3 41/52/3
f 46/57/5 53/64/5 55/66/5 48/59/5
f 48/59/6 55/66/6 56/67/6 36/47/6
f 34/45/3 54/65/3 53/64/3 46/57/3
f 4/4/6 8/8/6 26/37/6 27/38/6
f 27/38/6 26/37/6 37/48/6 39/50/6
f 39/50/6 37/48/6 7/7/6 3/3/6
f 80/99/5 19/27/5 18/26/5 22/32/5
f 23/34/5 80/99/5 22/32/5 87/106/5
f 88/107/1 39/50/1 3/3/1 87/106/1
f 86/105/1 27/38/1 39/50/1 88/107/1
f 89/108/4 67/84/4 21/30/4 73/91/4
f 85/104/1 4/4/1 27/38/1 86/105/1
f 23/33/5 63/78/5 79/98/5 80/99/5
f 19/28/3 64/81/3 71/89/3 45/56/3
f 13/16/6 61/76/6 62/77/6 31/42/6
f 35/46/6 68/86/6 72/90/6 47/58/6
f 33/44/3 65/82/3 90/109/3 17/25/3
f 47/58/6 72/90/6 63/79/6 23/34/6
f 21/31/6 67/85/6 68/86/6 35/46/6
f 30/41/3 59/72/3 60/73/3 9/10/3
f 42/53/3 69/87/3 59/72/3 30/41/3
f 9/9/4 60/74/4 77/96/4 78/97/4
f 11/14/5 5/5/5 1/1/5 84/103/5
f 84/103/5 10/11/5 76/94/5 11/14/5
f 15/22/5 76/95/5 10/12/5 14/19/5
f 13/17/4 16/23/4 12/15/4 78/97/4
f 78/97/4 12/15/4 83/102/4 9/9/4
f 9/10/4 83/102/4 2/2/4 6/6/4
f 24/35/4 73/91/4 21/30/4 85/104/4
f 85/104/4 21/31/4 8/8/4 4/4/4
